<?xml version="1.0" standalone="no"?>
<!DOCTYPE svg PUBLIC "-//W3C//DTD SVG 20010904//EN"
 "http://www.w3.org/TR/2001/REC-SVG-20010904/DTD/svg10.dtd">
<svg version="1.0" xmlns="http://www.w3.org/2000/svg"
 width="1344.000000pt" height="1344.000000pt" viewBox="0 0 1344.000000 1344.000000"
 preserveAspectRatio="xMidYMid meet">
<metadata>
Created by potrace 1.11, written by Peter Selinger 2001-2013
</metadata>
<g transform="translate(0.000000,1344.000000) scale(0.100000,-0.100000)"
fill="#000000" stroke="none">
<path d="M1787 9464 c-1 -1 -47 -5 -102 -9 -55 -3 -116 -8 -135 -10 -125 -12
-168 -16 -190 -20 -14 -2 -45 -7 -70 -10 -46 -6 -255 -42 -300 -51 -14 -3 -41
-8 -60 -11 -56 -9 -469 -117 -505 -132 -11 -5 -76 -28 -145 -51 -69 -23 -139
-49 -157 -57 l-31 -14 3 -2407 c2 -1324 4 -2410 4 -2414 1 -6 165 -88 176 -88
2 0 16 -5 32 -12 15 -6 33 -12 38 -14 6 -2 57 -19 115 -39 58 -20 114 -38 125
-40 11 -2 56 -13 100 -25 44 -11 89 -23 100 -25 11 -3 31 -7 45 -10 34 -8 60
-13 90 -18 14 -2 39 -7 55 -10 17 -4 46 -9 65 -11 19 -3 46 -7 60 -10 14 -2
45 -7 70 -10 25 -3 54 -8 65 -10 11 -2 56 -7 100 -11 44 -4 99 -8 121 -10 171
-15 272 -18 584 -18 195 0 384 3 420 6 165 14 217 18 240 22 14 2 50 6 80 10
30 4 69 9 85 11 17 3 41 7 55 9 22 3 139 27 195 39 360 77 696 225 905 396 81
66 193 187 213 228 5 12 14 22 19 22 4 0 8 6 8 14 0 7 7 19 15 26 22 19 102
191 126 272 22 77 23 82 35 168 11 73 11 321 0 390 -5 30 -10 66 -12 80 -3 24
-8 43 -37 145 -18 66 -108 275 -117 275 -4 0 -11 11 -14 25 -4 14 -11 25 -16
25 -6 0 -10 6 -10 13 0 26 -163 216 -246 287 -41 36 -131 101 -173 126 -107
64 -331 163 -371 164 -8 1 -26 7 -39 14 l-23 13 33 8 c19 4 39 9 44 10 30 7
175 69 221 95 220 120 410 346 492 585 54 157 67 246 65 450 -2 195 -7 239
-45 395 -28 112 -119 334 -148 360 -3 3 -11 16 -18 30 -44 87 -294 360 -328
360 -8 0 -14 3 -14 8 0 4 -24 23 -53 42 -28 19 -54 38 -57 41 -5 6 -26 18
-161 90 -176 95 -473 193 -709 235 -14 2 -36 7 -50 9 -14 3 -47 7 -75 10 -27
3 -61 8 -75 10 -71 11 -113 16 -195 21 -93 6 -513 13 -518 8z m456 -1609 c31
-9 59 -21 63 -26 3 -5 9 -7 13 -5 4 3 19 -5 34 -17 15 -12 42 -33 61 -47 20
-14 36 -29 36 -33 0 -4 9 -17 20 -29 40 -43 71 -137 74 -223 1 -26 -10 -119
-18 -150 -8 -32 -47 -105 -71 -133 -31 -37 -145 -127 -145 -115 0 4 -4 3 -8
-3 -10 -14 -104 -51 -177 -68 -77 -19 -151 -28 -245 -29 l-75 -2 1 105 c2 111
14 604 17 679 l2 45 60 23 c133 53 244 61 358 28z m-83 -1618 c14 -4 39 -9 55
-13 65 -13 156 -65 206 -116 56 -56 104 -147 115 -218 17 -108 -7 -281 -42
-311 -8 -6 -14 -17 -14 -23 0 -15 -78 -97 -115 -121 -74 -48 -146 -74 -230
-83 -91 -10 -244 -5 -299 10 l-50 13 1 60 c1 33 4 211 8 395 3 184 6 349 6
366 -1 29 1 31 46 40 51 11 271 11 313 1z"/>
<path d="M10588 9345 c-2 -2 -69 -6 -150 -9 -81 -4 -157 -9 -168 -11 -11 -2
-56 -7 -99 -10 -44 -3 -88 -7 -98 -9 -10 -2 -49 -7 -88 -11 -38 -4 -79 -9 -90
-11 -11 -2 -37 -6 -59 -9 -21 -3 -52 -7 -70 -10 -111 -19 -160 -28 -226 -41
-41 -9 -84 -17 -95 -20 -11 -2 -70 -15 -130 -29 -61 -14 -119 -28 -130 -30
-51 -12 -291 -78 -294 -82 -14 -12 -21 -361 -26 -1298 -3 -495 -7 -1163 -9
-1485 -4 -545 -9 -2286 -7 -2320 1 -13 105 -15 871 -15 766 0 870 2 871 15 1
8 2 368 3 799 l1 784 60 3 c96 4 286 15 330 19 85 9 151 16 180 20 17 3 48 7
70 10 40 5 178 30 225 40 14 4 36 8 50 11 14 3 33 7 42 10 10 3 28 7 40 9 13
3 55 14 93 25 39 12 86 25 106 30 29 8 182 63 239 87 8 3 20 7 26 8 6 2 78 36
160 76 151 74 295 164 394 247 86 72 218 210 268 282 26 36 49 67 52 70 4 3
10 12 13 20 4 8 16 29 27 45 36 55 41 65 33 65 -4 0 -3 4 3 8 15 9 73 136 107
232 40 116 75 281 81 386 2 22 5 45 7 50 12 26 -2 390 -16 444 -3 8 -7 35 -10
60 -9 71 -51 219 -95 329 -99 252 -255 470 -466 651 -56 48 -222 163 -299 207
-59 33 -267 133 -310 148 -27 10 -54 22 -60 27 -5 4 -15 8 -21 8 -7 0 -25 5
-41 12 -15 6 -30 12 -33 13 -3 0 -32 9 -65 19 -33 10 -64 19 -70 20 -5 1 -16
5 -22 9 -7 5 -13 6 -13 3 0 -2 -15 0 -32 5 -18 5 -49 12 -68 15 -19 3 -37 7
-40 9 -11 7 -226 40 -325 50 -33 3 -76 9 -95 12 -35 5 -527 13 -532 8z m550
-1509 c149 -30 293 -136 348 -256 40 -85 48 -124 48 -235 1 -137 -4 -161 -47
-255 -75 -162 -207 -279 -386 -344 -39 -14 -84 -28 -99 -32 -39 -9 -326 -15
-346 -8 -14 5 -15 21 -11 118 3 61 7 174 10 251 3 77 8 185 10 240 12 288 17
404 18 442 1 49 5 51 117 69 69 11 82 13 85 16 6 6 220 1 253 -6z"/>
<path d="M4539 9285 c-3 0 -9 -161 -14 -350 -5 -196 -6 -243 -5 -287 0 -7 -2
-78 -4 -158 -3 -80 -7 -244 -11 -365 -3 -121 -7 -309 -10 -417 l-5 -197 87 4
c49 3 129 7 178 10 114 6 238 13 385 20 63 3 149 8 190 10 41 3 121 7 178 10
l102 6 1 -78 c1 -43 3 -112 5 -153 2 -41 6 -133 9 -205 3 -71 7 -182 10 -245
8 -188 15 -348 20 -475 3 -66 7 -176 10 -245 3 -69 8 -181 10 -250 5 -126 9
-235 20 -475 3 -71 7 -186 10 -255 3 -69 8 -179 10 -245 3 -66 7 -169 10 -230
2 -60 7 -173 10 -250 6 -137 12 -292 14 -347 l1 -28 88 5 c48 2 132 6 187 9
148 9 277 16 395 21 58 3 141 8 185 10 44 3 136 7 206 10 69 4 152 8 185 11
32 3 68 5 79 4 25 -2 21 -2 145 6 58 3 106 7 108 9 6 6 14 186 27 591 1 51 6
97 9 103 4 6 2 11 -4 11 -6 0 -8 4 -5 10 3 5 8 56 10 112 2 57 7 171 10 253 7
193 13 353 21 540 3 83 7 193 9 245 2 52 6 160 9 240 13 314 16 400 21 535 2
77 5 140 5 140 1 0 3 59 5 130 3 72 7 182 10 245 3 63 6 159 8 212 2 54 7 101
11 105 3 4 34 8 69 9 34 1 139 5 232 9 94 4 202 8 241 9 39 2 75 6 81 9 7 4
14 3 18 -3 4 -6 11 -8 16 -5 8 6 118 11 369 19 l84 2 2 60 c2 61 14 538 19
794 4 198 16 682 17 689 0 3 0 15 -1 27 l-1 21 -1420 -2 c-781 -1 -1422 -4
-1426 -7 -3 -3 -18 -3 -32 1 -15 4 -65 5 -112 4 -105 -3 -94 -3 -160 0 -30 2
-63 -1 -72 -5 -10 -5 -18 -5 -18 -1 0 4 -28 7 -62 5 -35 -2 -70 -3 -78 -3
-126 4 -200 2 -209 -3 -6 -4 -11 -4 -11 1 0 4 -27 8 -60 8 -33 0 -60 -3 -60
-7 0 -4 -12 -3 -28 1 -15 5 -37 4 -50 0 -12 -5 -32 -5 -44 0 -13 4 -35 5 -49
1 -15 -4 -32 -4 -39 0 -7 4 -25 4 -41 0 -15 -5 -30 -6 -33 -3 -4 5 -38 8 -77
8z"/>
</g>
</svg>
