<svg width="42" height="19" viewBox="0 0 42 19" fill="none" xmlns="http://www.w3.org/2000/svg"><path d="M13.9023 13.8281C13.9023 14.4766 13.7812 15.0352 13.5391 15.5039C13.3047 15.9727 12.9883 16.3711 12.5898 16.6992C12.1914 17.0273 11.7305 17.2969 11.207 17.5078C10.6914 17.7109 10.1523 17.8711 9.58984 17.9883C9.02734 18.1055 8.46094 18.1836 7.89062 18.2227C7.32812 18.2617 6.80078 18.2812 6.30859 18.2812C5.82422 18.2812 5.32031 18.2617 4.79688 18.2227C4.28125 18.1914 3.76562 18.1328 3.25 18.0469C2.73438 17.9609 2.22656 17.8477 1.72656 17.707C1.22656 17.5586 0.753906 17.375 0.308594 17.1562L0.285156 2.0625C0.722656 1.88281 1.1875 1.72266 1.67969 1.58203C2.17188 1.43359 2.67188 1.3125 3.17969 1.21875C3.69531 1.11719 4.20703 1.04297 4.71484 0.996094C5.22266 0.941406 5.71484 0.914062 6.19141 0.914062C6.74609 0.914062 7.30469 0.949219 7.86719 1.01953C8.4375 1.08984 8.98438 1.20703 9.50781 1.37109C10.0312 1.53516 10.5195 1.75 10.9727 2.01562C11.4258 2.27344 11.8203 2.59375 12.1562 2.97656C12.5 3.35938 12.7656 3.80469 12.9531 4.3125C13.1484 4.82031 13.2461 5.40625 13.2461 6.07031C13.2461 6.50781 13.1836 6.91797 13.0586 7.30078C12.9336 7.68359 12.7539 8.02734 12.5195 8.33203C12.2852 8.63672 12 8.89844 11.6641 9.11719C11.3281 9.32812 10.9492 9.48438 10.5273 9.58594C11.0352 9.71875 11.4961 9.91406 11.9102 10.1719C12.332 10.4297 12.6875 10.7422 12.9766 11.1094C13.2734 11.4766 13.5 11.8906 13.6562 12.3516C13.8203 12.8125 13.9023 13.3047 13.9023 13.8281ZM7.94922 7.14844C7.94922 6.92188 7.90234 6.73047 7.80859 6.57422C7.71484 6.41016 7.59766 6.27734 7.45703 6.17578C7.32422 6.07422 7.17578 6 7.01172 5.95312C6.85547 5.90625 6.71484 5.88281 6.58984 5.88281C6.43359 5.88281 6.28125 5.90625 6.13281 5.95312C5.98438 6 5.83984 6.05469 5.69922 6.11719L5.62891 8.71875C5.80859 8.71875 6.03125 8.70312 6.29688 8.67188C6.5625 8.64062 6.81641 8.57422 7.05859 8.47266C7.30859 8.36328 7.51953 8.20703 7.69141 8.00391C7.86328 7.79297 7.94922 7.50781 7.94922 7.14844ZM6.28516 10.9688C6.05859 10.9688 5.83984 10.9922 5.62891 11.0391L5.58203 13.7109C5.69922 13.7344 5.8125 13.7578 5.92188 13.7812C6.03906 13.7969 6.15234 13.8047 6.26172 13.8047C6.42578 13.8047 6.60547 13.7891 6.80078 13.7578C6.99609 13.7188 7.17969 13.6484 7.35156 13.5469C7.52344 13.4375 7.66406 13.293 7.77344 13.1133C7.89062 12.9336 7.94922 12.6953 7.94922 12.3984C7.94922 12.1016 7.89062 11.8594 7.77344 11.6719C7.66406 11.4844 7.52734 11.3398 7.36328 11.2383C7.19922 11.1289 7.01953 11.0586 6.82422 11.0273C6.62891 10.9883 6.44922 10.9688 6.28516 10.9688ZM41.2656 7.19531C41.2656 7.95312 41.1523 8.625 40.9258 9.21094C40.6992 9.79688 40.3867 10.3125 39.9883 10.7578C39.5977 11.1953 39.1367 11.5664 38.6055 11.8711C38.0742 12.168 37.5039 12.4141 36.8945 12.6094C36.293 12.7969 35.668 12.9375 35.0195 13.0312C34.3711 13.1172 33.7344 13.1641 33.1094 13.1719V18.1641H27.6484C27.6484 17.2734 27.6484 16.4062 27.6484 15.5625C27.6562 14.7188 27.6602 13.8828 27.6602 13.0547C27.668 12.2188 27.6719 11.3789 27.6719 10.5352C27.6797 9.69141 27.6875 8.82031 27.6953 7.92188C27.7109 6.96875 27.7148 6.01562 27.707 5.0625C27.6992 4.10938 27.7188 3.14844 27.7656 2.17969C28.7656 1.88281 29.7656 1.66016 30.7656 1.51172C31.7656 1.36328 32.7969 1.28906 33.8594 1.28906C34.4609 1.28906 35.0625 1.33984 35.6641 1.44141C36.2656 1.53516 36.8398 1.6875 37.3867 1.89844C37.9414 2.10938 38.4531 2.375 38.9219 2.69531C39.3984 3.00781 39.8086 3.38281 40.1523 3.82031C40.4961 4.25781 40.7656 4.75781 40.9609 5.32031C41.1641 5.88281 41.2656 6.50781 41.2656 7.19531ZM36.0625 7.59375C36.0625 7.08594 35.9062 6.69141 35.5938 6.41016C35.2891 6.12109 34.8906 5.97656 34.3984 5.97656C34.2344 5.97656 34.0625 5.99219 33.8828 6.02344C33.7109 6.04688 33.5469 6.07812 33.3906 6.11719L33.25 9.53906C33.3594 9.55469 33.4648 9.5625 33.5664 9.5625C33.668 9.5625 33.7734 9.5625 33.8828 9.5625C34.1641 9.5625 34.4336 9.51562 34.6914 9.42188C34.957 9.32812 35.1914 9.19531 35.3945 9.02344C35.5977 8.84375 35.7578 8.63672 35.875 8.40234C36 8.16016 36.0625 7.89062 36.0625 7.59375Z" fill="#333"/><path d="M26.9453 1.47656L26.8281 6.44531L23.3359 6.58594L22.9141 17.4609L17.9688 17.7188L17.5234 6.84375L14.0312 7.03125L14.1719 1.5L26.9453 1.47656Z" fill="#EC1F46"/></svg>